<svg width="58" height="50" viewBox="0 0 58 50" fill="none" xmlns="http://www.w3.org/2000/svg">
<path d="M38.1492 26.6466C35.5821 22.6453 31.2101 20.256 26.4538 20.256C21.6975 20.256 17.3254 22.6453 14.7588 26.6466L8.57303 36.2882C7.54683 37.8876 7.07328 39.7359 7.20331 41.6315C7.33345 43.5275 8.05558 45.2931 9.29126 46.7387C10.5277 48.1829 12.1616 49.1701 14.0162 49.5937C15.8708 50.0172 17.772 49.8364 19.5138 49.0713L19.6305 49.0196C24.0134 47.1331 29.0217 47.1505 33.3934 49.0713C34.521 49.5667 35.7158 49.8172 36.9214 49.8172C37.5769 49.8172 38.2363 49.7429 38.8895 49.5941C40.7442 49.171 42.3781 48.1838 43.615 46.7391C44.8511 45.2948 45.5736 43.5289 45.7041 41.6324C45.8347 39.7359 45.3612 37.8881 44.3349 36.2877L38.1492 26.6466ZM10.2392 26.6339C12.0794 25.9278 13.4774 24.4461 14.1756 22.4618C14.8402 20.5735 14.7857 18.4417 14.0218 16.4587C13.2576 14.4771 11.8675 12.8593 10.1073 11.903C8.25837 10.8988 6.22714 10.7354 4.38989 11.4429C0.693898 12.8627 -1.00229 17.4263 0.609328 21.6181C1.89681 24.9544 4.89965 27.0605 7.93536 27.0605C8.72308 27.0615 9.50418 26.9169 10.2392 26.6339ZM22.2414 19.0802C26.862 19.0802 30.6212 14.801 30.6212 9.54115C30.6212 4.28001 26.862 0 22.2414 0C17.6213 0 13.8626 4.28001 13.8626 9.54115C13.8626 14.801 17.6212 19.0802 22.2414 19.0802ZM36.7133 21.4238H36.7138C37.4097 21.6548 38.1383 21.7724 38.8717 21.772C42.2413 21.772 45.5253 19.3216 46.7783 15.5554C47.5 13.3877 47.4524 11.0954 46.6446 9.10152C45.7995 7.01412 44.233 5.49894 42.2335 4.83498C40.2335 4.17091 38.0708 4.44789 36.1432 5.61428C34.3017 6.72834 32.8905 8.5362 32.1699 10.704C30.6486 15.2772 32.6869 20.086 36.7133 21.4238ZM54.3603 20.3105L54.359 20.3091C51.1726 17.9573 46.4071 18.9767 43.7352 22.5827C41.0658 26.1904 41.4832 31.0405 44.6648 33.3941C45.8251 34.253 47.1963 34.6635 48.5994 34.6635C51.0452 34.6635 53.5895 33.4162 55.2904 31.1228C57.9594 27.515 57.5424 22.6648 54.3603 20.3104V20.3105Z" fill="#FDEEE3"/>
</svg>
